<?xml version="1.0" encoding="UTF-8" standalone="no"?>
<!-- This is a Stata 15.1 generated SVG file (http://www.stata.com) -->

<svg version="1.1" width="5.50in" height="4.00in" viewBox="0 0 3960 2880" xmlns="http://www.w3.org/2000/svg" xmlns:xlink="http://www.w3.org/1999/xlink">
	<desc>Stata Graph - Graph</desc>
	<rect x="0" y="0" width="3960" height="2880" style="fill:#EAF2F3;stroke:none"/>
	<rect x="0.00" y="0.00" width="3959.88" height="2880.00" style="fill:#FFFFFF"/>
	<rect x="2.88" y="2.88" width="3954.12" height="2874.24" style="fill:none;stroke:#FFFFFF;stroke-width:5.76"/>
	<rect x="539.43" y="232.16" width="3362.91" height="2469.01" style="fill:#FFFFFF"/>
	<rect x="542.31" y="235.04" width="3357.15" height="2463.25" style="fill:none;stroke:#FFFFFF;stroke-width:5.76"/>
	<defs>
		<path id="path1" d="M602.79 295.52 L602.79 295.52 L962.28 295.52 L962.28 583.25 L602.79 583.25 L602.79 295.52 Z" stroke-linecap="round"/>
	</defs>
	<defs>
		<clipPath id="clipPath1">
			<use xlink:href="#path1"/>
		</clipPath>
	</defs>
	<use xlink:href="#path1" style="stroke:none;fill:#F7FBFF"/>
	<use xlink:href="#path1" style="fill:none;stroke:#F7FBFF;stroke-width:8.64" clip-path="url(#clipPath1)"/>
	<defs>
		<path id="path2" d="M962.28 295.52 L962.28 295.52 L1321.90 295.52 L1321.90 583.25 L962.28 583.25 L962.28 295.52 Z" stroke-linecap="round"/>
	</defs>
	<defs>
		<clipPath id="clipPath2">
			<use xlink:href="#path2"/>
		</clipPath>
	</defs>
	<use xlink:href="#path2" style="stroke:none;fill:#DEEBF7"/>
	<use xlink:href="#path2" style="fill:none;stroke:#DEEBF7;stroke-width:8.64" clip-path="url(#clipPath2)"/>
	<defs>
		<path id="path3" d="M1321.90 295.52 L1321.90 295.52 L1681.52 295.52 L1681.52 583.25 L1321.90 583.25 L1321.90 295.52 Z" stroke-linecap="round"/>
	</defs>
	<defs>
		<clipPath id="clipPath3">
			<use xlink:href="#path3"/>
		</clipPath>
	</defs>
	<use xlink:href="#path3" style="stroke:none;fill:#C6DBEF"/>
	<use xlink:href="#path3" style="fill:none;stroke:#C6DBEF;stroke-width:8.64" clip-path="url(#clipPath3)"/>
	<defs>
		<path id="path4" d="M1681.52 295.52 L1681.52 295.52 L2041.01 295.52 L2041.01 583.25 L1681.52 583.25 L1681.52 295.52 Z" stroke-linecap="round"/>
	</defs>
	<defs>
		<clipPath id="clipPath4">
			<use xlink:href="#path4"/>
		</clipPath>
	</defs>
	<use xlink:href="#path4" style="stroke:none;fill:#9ECAE1"/>
	<use xlink:href="#path4" style="fill:none;stroke:#9ECAE1;stroke-width:8.64" clip-path="url(#clipPath4)"/>
	<defs>
		<path id="path5" d="M2041.01 295.52 L2041.01 295.52 L2400.63 295.52 L2400.63 583.25 L2041.01 583.25 L2041.01 295.52 Z" stroke-linecap="round"/>
	</defs>
	<defs>
		<clipPath id="clipPath5">
			<use xlink:href="#path5"/>
		</clipPath>
	</defs>
	<use xlink:href="#path5" style="stroke:none;fill:#6BAED6"/>
	<use xlink:href="#path5" style="fill:none;stroke:#6BAED6;stroke-width:8.64" clip-path="url(#clipPath5)"/>
	<defs>
		<path id="path6" d="M2400.63 295.52 L2400.63 295.52 L2760.12 295.52 L2760.12 583.25 L2400.63 583.25 L2400.63 295.52 Z" stroke-linecap="round"/>
	</defs>
	<defs>
		<clipPath id="clipPath6">
			<use xlink:href="#path6"/>
		</clipPath>
	</defs>
	<use xlink:href="#path6" style="stroke:none;fill:#4292C6"/>
	<use xlink:href="#path6" style="fill:none;stroke:#4292C6;stroke-width:8.64" clip-path="url(#clipPath6)"/>
	<defs>
		<path id="path7" d="M2760.12 295.52 L2760.12 295.52 L3119.74 295.52 L3119.74 583.25 L2760.12 583.25 L2760.12 295.52 Z" stroke-linecap="round"/>
	</defs>
	<defs>
		<clipPath id="clipPath7">
			<use xlink:href="#path7"/>
		</clipPath>
	</defs>
	<use xlink:href="#path7" style="stroke:none;fill:#2171B5"/>
	<use xlink:href="#path7" style="fill:none;stroke:#2171B5;stroke-width:8.64" clip-path="url(#clipPath7)"/>
	<defs>
		<path id="path8" d="M3119.74 295.52 L3119.74 295.52 L3479.36 295.52 L3479.36 583.25 L3119.74 583.25 L3119.74 295.52 Z" stroke-linecap="round"/>
	</defs>
	<defs>
		<clipPath id="clipPath8">
			<use xlink:href="#path8"/>
		</clipPath>
	</defs>
	<use xlink:href="#path8" style="stroke:none;fill:#08519C"/>
	<use xlink:href="#path8" style="fill:none;stroke:#08519C;stroke-width:8.64" clip-path="url(#clipPath8)"/>
	<defs>
		<path id="path9" d="M3479.36 295.52 L3479.36 295.52 L3838.85 295.52 L3838.85 583.25 L3479.36 583.25 L3479.36 295.52 Z" stroke-linecap="round"/>
	</defs>
	<defs>
		<clipPath id="clipPath9">
			<use xlink:href="#path9"/>
		</clipPath>
	</defs>
	<use xlink:href="#path9" style="stroke:none;fill:#08306B"/>
	<use xlink:href="#path9" style="fill:none;stroke:#08306B;stroke-width:8.64" clip-path="url(#clipPath9)"/>
	<defs>
		<path id="path10" d="M602.79 706.51 L602.79 706.51 L962.28 706.51 L962.28 994.11 L602.79 994.11 L602.79 706.51 Z" stroke-linecap="round"/>
	</defs>
	<defs>
		<clipPath id="clipPath10">
			<use xlink:href="#path10"/>
		</clipPath>
	</defs>
	<use xlink:href="#path10" style="stroke:none;fill:#F7FCF5"/>
	<use xlink:href="#path10" style="fill:none;stroke:#F7FCF5;stroke-width:8.64" clip-path="url(#clipPath10)"/>
	<defs>
		<path id="path11" d="M962.28 706.51 L962.28 706.51 L1321.90 706.51 L1321.90 994.11 L962.28 994.11 L962.28 706.51 Z" stroke-linecap="round"/>
	</defs>
	<defs>
		<clipPath id="clipPath11">
			<use xlink:href="#path11"/>
		</clipPath>
	</defs>
	<use xlink:href="#path11" style="stroke:none;fill:#E5F5E0"/>
	<use xlink:href="#path11" style="fill:none;stroke:#E5F5E0;stroke-width:8.64" clip-path="url(#clipPath11)"/>
	<defs>
		<path id="path12" d="M1321.90 706.51 L1321.90 706.51 L1681.52 706.51 L1681.52 994.11 L1321.90 994.11 L1321.90 706.51 Z" stroke-linecap="round"/>
	</defs>
	<defs>
		<clipPath id="clipPath12">
			<use xlink:href="#path12"/>
		</clipPath>
	</defs>
	<use xlink:href="#path12" style="stroke:none;fill:#C7E9C0"/>
	<use xlink:href="#path12" style="fill:none;stroke:#C7E9C0;stroke-width:8.64" clip-path="url(#clipPath12)"/>
	<defs>
		<path id="path13" d="M1681.52 706.51 L1681.52 706.51 L2041.01 706.51 L2041.01 994.11 L1681.52 994.11 L1681.52 706.51 Z" stroke-linecap="round"/>
	</defs>
	<defs>
		<clipPath id="clipPath13">
			<use xlink:href="#path13"/>
		</clipPath>
	</defs>
	<use xlink:href="#path13" style="stroke:none;fill:#A1D99B"/>
	<use xlink:href="#path13" style="fill:none;stroke:#A1D99B;stroke-width:8.64" clip-path="url(#clipPath13)"/>
	<defs>
		<path id="path14" d="M2041.01 706.51 L2041.01 706.51 L2400.63 706.51 L2400.63 994.11 L2041.01 994.11 L2041.01 706.51 Z" stroke-linecap="round"/>
	</defs>
	<defs>
		<clipPath id="clipPath14">
			<use xlink:href="#path14"/>
		</clipPath>
	</defs>
	<use xlink:href="#path14" style="stroke:none;fill:#74C476"/>
	<use xlink:href="#path14" style="fill:none;stroke:#74C476;stroke-width:8.64" clip-path="url(#clipPath14)"/>
	<defs>
		<path id="path15" d="M2400.63 706.51 L2400.63 706.51 L2760.12 706.51 L2760.12 994.11 L2400.63 994.11 L2400.63 706.51 Z" stroke-linecap="round"/>
	</defs>
	<defs>
		<clipPath id="clipPath15">
			<use xlink:href="#path15"/>
		</clipPath>
	</defs>
	<use xlink:href="#path15" style="stroke:none;fill:#41AB5D"/>
	<use xlink:href="#path15" style="fill:none;stroke:#41AB5D;stroke-width:8.64" clip-path="url(#clipPath15)"/>
	<defs>
		<path id="path16" d="M2760.12 706.51 L2760.12 706.51 L3119.74 706.51 L3119.74 994.11 L2760.12 994.11 L2760.12 706.51 Z" stroke-linecap="round"/>
	</defs>
	<defs>
		<clipPath id="clipPath16">
			<use xlink:href="#path16"/>
		</clipPath>
	</defs>
	<use xlink:href="#path16" style="stroke:none;fill:#238B45"/>
	<use xlink:href="#path16" style="fill:none;stroke:#238B45;stroke-width:8.64" clip-path="url(#clipPath16)"/>
	<defs>
		<path id="path17" d="M3119.74 706.51 L3119.74 706.51 L3479.36 706.51 L3479.36 994.11 L3119.74 994.11 L3119.74 706.51 Z" stroke-linecap="round"/>
	</defs>
	<defs>
		<clipPath id="clipPath17">
			<use xlink:href="#path17"/>
		</clipPath>
	</defs>
	<use xlink:href="#path17" style="stroke:none;fill:#006D2C"/>
	<use xlink:href="#path17" style="fill:none;stroke:#006D2C;stroke-width:8.64" clip-path="url(#clipPath17)"/>
	<defs>
		<path id="path18" d="M3479.36 706.51 L3479.36 706.51 L3838.85 706.51 L3838.85 994.11 L3479.36 994.11 L3479.36 706.51 Z" stroke-linecap="round"/>
	</defs>
	<defs>
		<clipPath id="clipPath18">
			<use xlink:href="#path18"/>
		</clipPath>
	</defs>
	<use xlink:href="#path18" style="stroke:none;fill:#00441B"/>
	<use xlink:href="#path18" style="fill:none;stroke:#00441B;stroke-width:8.64" clip-path="url(#clipPath18)"/>
	<defs>
		<path id="path19" d="M602.79 1117.50 L602.79 1117.50 L962.28 1117.50 L962.28 1405.10 L602.79 1405.10 L602.79 1117.50 Z" stroke-linecap="round"/>
	</defs>
	<defs>
		<clipPath id="clipPath19">
			<use xlink:href="#path19"/>
		</clipPath>
	</defs>
	<use xlink:href="#path19" style="stroke:none;fill:#FFFFFF"/>
	<use xlink:href="#path19" style="fill:none;stroke:#FFFFFF;stroke-width:8.64" clip-path="url(#clipPath19)"/>
	<defs>
		<path id="path20" d="M962.28 1117.50 L962.28 1117.50 L1321.90 1117.50 L1321.90 1405.10 L962.28 1405.10 L962.28 1117.50 Z" stroke-linecap="round"/>
	</defs>
	<defs>
		<clipPath id="clipPath20">
			<use xlink:href="#path20"/>
		</clipPath>
	</defs>
	<use xlink:href="#path20" style="stroke:none;fill:#F0F0F0"/>
	<use xlink:href="#path20" style="fill:none;stroke:#F0F0F0;stroke-width:8.64" clip-path="url(#clipPath20)"/>
	<defs>
		<path id="path21" d="M1321.90 1117.50 L1321.90 1117.50 L1681.52 1117.50 L1681.52 1405.10 L1321.90 1405.10 L1321.90 1117.50 Z" stroke-linecap="round"/>
	</defs>
	<defs>
		<clipPath id="clipPath21">
			<use xlink:href="#path21"/>
		</clipPath>
	</defs>
	<use xlink:href="#path21" style="stroke:none;fill:#D9D9D9"/>
	<use xlink:href="#path21" style="fill:none;stroke:#D9D9D9;stroke-width:8.64" clip-path="url(#clipPath21)"/>
	<defs>
		<path id="path22" d="M1681.52 1117.50 L1681.52 1117.50 L2041.01 1117.50 L2041.01 1405.10 L1681.52 1405.10 L1681.52 1117.50 Z" stroke-linecap="round"/>
	</defs>
	<defs>
		<clipPath id="clipPath22">
			<use xlink:href="#path22"/>
		</clipPath>
	</defs>
	<use xlink:href="#path22" style="stroke:none;fill:#BDBDBD"/>
	<use xlink:href="#path22" style="fill:none;stroke:#BDBDBD;stroke-width:8.64" clip-path="url(#clipPath22)"/>
	<defs>
		<path id="path23" d="M2041.01 1117.50 L2041.01 1117.50 L2400.63 1117.50 L2400.63 1405.10 L2041.01 1405.10 L2041.01 1117.50 Z" stroke-linecap="round"/>
	</defs>
	<defs>
		<clipPath id="clipPath23">
			<use xlink:href="#path23"/>
		</clipPath>
	</defs>
	<use xlink:href="#path23" style="stroke:none;fill:#969696"/>
	<use xlink:href="#path23" style="fill:none;stroke:#969696;stroke-width:8.64" clip-path="url(#clipPath23)"/>
	<defs>
		<path id="path24" d="M2400.63 1117.50 L2400.63 1117.50 L2760.12 1117.50 L2760.12 1405.10 L2400.63 1405.10 L2400.63 1117.50 Z" stroke-linecap="round"/>
	</defs>
	<defs>
		<clipPath id="clipPath24">
			<use xlink:href="#path24"/>
		</clipPath>
	</defs>
	<use xlink:href="#path24" style="stroke:none;fill:#737373"/>
	<use xlink:href="#path24" style="fill:none;stroke:#737373;stroke-width:8.64" clip-path="url(#clipPath24)"/>
	<defs>
		<path id="path25" d="M2760.12 1117.50 L2760.12 1117.50 L3119.74 1117.50 L3119.74 1405.10 L2760.12 1405.10 L2760.12 1117.50 Z" stroke-linecap="round"/>
	</defs>
	<defs>
		<clipPath id="clipPath25">
			<use xlink:href="#path25"/>
		</clipPath>
	</defs>
	<use xlink:href="#path25" style="stroke:none;fill:#525252"/>
	<use xlink:href="#path25" style="fill:none;stroke:#525252;stroke-width:8.64" clip-path="url(#clipPath25)"/>
	<defs>
		<path id="path26" d="M3119.74 1117.50 L3119.74 1117.50 L3479.36 1117.50 L3479.36 1405.10 L3119.74 1405.10 L3119.74 1117.50 Z" stroke-linecap="round"/>
	</defs>
	<defs>
		<clipPath id="clipPath26">
			<use xlink:href="#path26"/>
		</clipPath>
	</defs>
	<use xlink:href="#path26" style="stroke:none;fill:#252525"/>
	<use xlink:href="#path26" style="fill:none;stroke:#252525;stroke-width:8.64" clip-path="url(#clipPath26)"/>
	<defs>
		<path id="path27" d="M3479.36 1117.50 L3479.36 1117.50 L3838.85 1117.50 L3838.85 1405.10 L3479.36 1405.10 L3479.36 1117.50 Z" stroke-linecap="round"/>
	</defs>
	<defs>
		<clipPath id="clipPath27">
			<use xlink:href="#path27"/>
		</clipPath>
	</defs>
	<use xlink:href="#path27" style="stroke:none;fill:#000000"/>
	<use xlink:href="#path27" style="fill:none;stroke:#000000;stroke-width:8.64" clip-path="url(#clipPath27)"/>
	<defs>
		<path id="path28" d="M602.79 1528.36 L602.79 1528.36 L962.28 1528.36 L962.28 1816.09 L602.79 1816.09 L602.79 1528.36 Z" stroke-linecap="round"/>
	</defs>
	<defs>
		<clipPath id="clipPath28">
			<use xlink:href="#path28"/>
		</clipPath>
	</defs>
	<use xlink:href="#path28" style="stroke:none;fill:#FFF5EB"/>
	<use xlink:href="#path28" style="fill:none;stroke:#FFF5EB;stroke-width:8.64" clip-path="url(#clipPath28)"/>
	<defs>
		<path id="path29" d="M962.28 1528.36 L962.28 1528.36 L1321.90 1528.36 L1321.90 1816.09 L962.28 1816.09 L962.28 1528.36 Z" stroke-linecap="round"/>
	</defs>
	<defs>
		<clipPath id="clipPath29">
			<use xlink:href="#path29"/>
		</clipPath>
	</defs>
	<use xlink:href="#path29" style="stroke:none;fill:#FEE6CE"/>
	<use xlink:href="#path29" style="fill:none;stroke:#FEE6CE;stroke-width:8.64" clip-path="url(#clipPath29)"/>
	<defs>
		<path id="path30" d="M1321.90 1528.36 L1321.90 1528.36 L1681.52 1528.36 L1681.52 1816.09 L1321.90 1816.09 L1321.90 1528.36 Z" stroke-linecap="round"/>
	</defs>
	<defs>
		<clipPath id="clipPath30">
			<use xlink:href="#path30"/>
		</clipPath>
	</defs>
	<use xlink:href="#path30" style="stroke:none;fill:#FDD0A2"/>
	<use xlink:href="#path30" style="fill:none;stroke:#FDD0A2;stroke-width:8.64" clip-path="url(#clipPath30)"/>
	<defs>
		<path id="path31" d="M1681.52 1528.36 L1681.52 1528.36 L2041.01 1528.36 L2041.01 1816.09 L1681.52 1816.09 L1681.52 1528.36 Z" stroke-linecap="round"/>
	</defs>
	<defs>
		<clipPath id="clipPath31">
			<use xlink:href="#path31"/>
		</clipPath>
	</defs>
	<use xlink:href="#path31" style="stroke:none;fill:#FDAE6B"/>
	<use xlink:href="#path31" style="fill:none;stroke:#FDAE6B;stroke-width:8.64" clip-path="url(#clipPath31)"/>
	<defs>
		<path id="path32" d="M2041.01 1528.36 L2041.01 1528.36 L2400.63 1528.36 L2400.63 1816.09 L2041.01 1816.09 L2041.01 1528.36 Z" stroke-linecap="round"/>
	</defs>
	<defs>
		<clipPath id="clipPath32">
			<use xlink:href="#path32"/>
		</clipPath>
	</defs>
	<use xlink:href="#path32" style="stroke:none;fill:#FD8D3C"/>
	<use xlink:href="#path32" style="fill:none;stroke:#FD8D3C;stroke-width:8.64" clip-path="url(#clipPath32)"/>
	<defs>
		<path id="path33" d="M2400.63 1528.36 L2400.63 1528.36 L2760.12 1528.36 L2760.12 1816.09 L2400.63 1816.09 L2400.63 1528.36 Z" stroke-linecap="round"/>
	</defs>
	<defs>
		<clipPath id="clipPath33">
			<use xlink:href="#path33"/>
		</clipPath>
	</defs>
	<use xlink:href="#path33" style="stroke:none;fill:#F16913"/>
	<use xlink:href="#path33" style="fill:none;stroke:#F16913;stroke-width:8.64" clip-path="url(#clipPath33)"/>
	<defs>
		<path id="path34" d="M2760.12 1528.36 L2760.12 1528.36 L3119.74 1528.36 L3119.74 1816.09 L2760.12 1816.09 L2760.12 1528.36 Z" stroke-linecap="round"/>
	</defs>
	<defs>
		<clipPath id="clipPath34">
			<use xlink:href="#path34"/>
		</clipPath>
	</defs>
	<use xlink:href="#path34" style="stroke:none;fill:#D94801"/>
	<use xlink:href="#path34" style="fill:none;stroke:#D94801;stroke-width:8.64" clip-path="url(#clipPath34)"/>
	<defs>
		<path id="path35" d="M3119.74 1528.36 L3119.74 1528.36 L3479.36 1528.36 L3479.36 1816.09 L3119.74 1816.09 L3119.74 1528.36 Z" stroke-linecap="round"/>
	</defs>
	<defs>
		<clipPath id="clipPath35">
			<use xlink:href="#path35"/>
		</clipPath>
	</defs>
	<use xlink:href="#path35" style="stroke:none;fill:#A63603"/>
	<use xlink:href="#path35" style="fill:none;stroke:#A63603;stroke-width:8.64" clip-path="url(#clipPath35)"/>
	<defs>
		<path id="path36" d="M3479.36 1528.36 L3479.36 1528.36 L3838.85 1528.36 L3838.85 1816.09 L3479.36 1816.09 L3479.36 1528.36 Z" stroke-linecap="round"/>
	</defs>
	<defs>
		<clipPath id="clipPath36">
			<use xlink:href="#path36"/>
		</clipPath>
	</defs>
	<use xlink:href="#path36" style="stroke:none;fill:#7F2704"/>
	<use xlink:href="#path36" style="fill:none;stroke:#7F2704;stroke-width:8.64" clip-path="url(#clipPath36)"/>
	<defs>
		<path id="path37" d="M602.79 1939.35 L602.79 1939.35 L962.28 1939.35 L962.28 2226.95 L602.79 2226.95 L602.79 1939.35 Z" stroke-linecap="round"/>
	</defs>
	<defs>
		<clipPath id="clipPath37">
			<use xlink:href="#path37"/>
		</clipPath>
	</defs>
	<use xlink:href="#path37" style="stroke:none;fill:#FCFBFD"/>
	<use xlink:href="#path37" style="fill:none;stroke:#FCFBFD;stroke-width:8.64" clip-path="url(#clipPath37)"/>
	<defs>
		<path id="path38" d="M962.28 1939.35 L962.28 1939.35 L1321.90 1939.35 L1321.90 2226.95 L962.28 2226.95 L962.28 1939.35 Z" stroke-linecap="round"/>
	</defs>
	<defs>
		<clipPath id="clipPath38">
			<use xlink:href="#path38"/>
		</clipPath>
	</defs>
	<use xlink:href="#path38" style="stroke:none;fill:#EFEDF5"/>
	<use xlink:href="#path38" style="fill:none;stroke:#EFEDF5;stroke-width:8.64" clip-path="url(#clipPath38)"/>
	<defs>
		<path id="path39" d="M1321.90 1939.35 L1321.90 1939.35 L1681.52 1939.35 L1681.52 2226.95 L1321.90 2226.95 L1321.90 1939.35 Z" stroke-linecap="round"/>
	</defs>
	<defs>
		<clipPath id="clipPath39">
			<use xlink:href="#path39"/>
		</clipPath>
	</defs>
	<use xlink:href="#path39" style="stroke:none;fill:#DADAEB"/>
	<use xlink:href="#path39" style="fill:none;stroke:#DADAEB;stroke-width:8.64" clip-path="url(#clipPath39)"/>
	<defs>
		<path id="path40" d="M1681.52 1939.35 L1681.52 1939.35 L2041.01 1939.35 L2041.01 2226.95 L1681.52 2226.95 L1681.52 1939.35 Z" stroke-linecap="round"/>
	</defs>
	<defs>
		<clipPath id="clipPath40">
			<use xlink:href="#path40"/>
		</clipPath>
	</defs>
	<use xlink:href="#path40" style="stroke:none;fill:#BCBDDC"/>
	<use xlink:href="#path40" style="fill:none;stroke:#BCBDDC;stroke-width:8.64" clip-path="url(#clipPath40)"/>
	<defs>
		<path id="path41" d="M2041.01 1939.35 L2041.01 1939.35 L2400.63 1939.35 L2400.63 2226.95 L2041.01 2226.95 L2041.01 1939.35 Z" stroke-linecap="round"/>
	</defs>
	<defs>
		<clipPath id="clipPath41">
			<use xlink:href="#path41"/>
		</clipPath>
	</defs>
	<use xlink:href="#path41" style="stroke:none;fill:#9E9AC8"/>
	<use xlink:href="#path41" style="fill:none;stroke:#9E9AC8;stroke-width:8.64" clip-path="url(#clipPath41)"/>
	<defs>
		<path id="path42" d="M2400.63 1939.35 L2400.63 1939.35 L2760.12 1939.35 L2760.12 2226.95 L2400.63 2226.95 L2400.63 1939.35 Z" stroke-linecap="round"/>
	</defs>
	<defs>
		<clipPath id="clipPath42">
			<use xlink:href="#path42"/>
		</clipPath>
	</defs>
	<use xlink:href="#path42" style="stroke:none;fill:#807DBA"/>
	<use xlink:href="#path42" style="fill:none;stroke:#807DBA;stroke-width:8.64" clip-path="url(#clipPath42)"/>
	<defs>
		<path id="path43" d="M2760.12 1939.35 L2760.12 1939.35 L3119.74 1939.35 L3119.74 2226.95 L2760.12 2226.95 L2760.12 1939.35 Z" stroke-linecap="round"/>
	</defs>
	<defs>
		<clipPath id="clipPath43">
			<use xlink:href="#path43"/>
		</clipPath>
	</defs>
	<use xlink:href="#path43" style="stroke:none;fill:#6A51A3"/>
	<use xlink:href="#path43" style="fill:none;stroke:#6A51A3;stroke-width:8.64" clip-path="url(#clipPath43)"/>
	<defs>
		<path id="path44" d="M3119.74 1939.35 L3119.74 1939.35 L3479.36 1939.35 L3479.36 2226.95 L3119.74 2226.95 L3119.74 1939.35 Z" stroke-linecap="round"/>
	</defs>
	<defs>
		<clipPath id="clipPath44">
			<use xlink:href="#path44"/>
		</clipPath>
	</defs>
	<use xlink:href="#path44" style="stroke:none;fill:#54278F"/>
	<use xlink:href="#path44" style="fill:none;stroke:#54278F;stroke-width:8.64" clip-path="url(#clipPath44)"/>
	<defs>
		<path id="path45" d="M3479.36 1939.35 L3479.36 1939.35 L3838.85 1939.35 L3838.85 2226.95 L3479.36 2226.95 L3479.36 1939.35 Z" stroke-linecap="round"/>
	</defs>
	<defs>
		<clipPath id="clipPath45">
			<use xlink:href="#path45"/>
		</clipPath>
	</defs>
	<use xlink:href="#path45" style="stroke:none;fill:#3F007D"/>
	<use xlink:href="#path45" style="fill:none;stroke:#3F007D;stroke-width:8.64" clip-path="url(#clipPath45)"/>
	<defs>
		<path id="path46" d="M602.79 2350.21 L602.79 2350.21 L962.28 2350.21 L962.28 2637.94 L602.79 2637.94 L602.79 2350.21 Z" stroke-linecap="round"/>
	</defs>
	<defs>
		<clipPath id="clipPath46">
			<use xlink:href="#path46"/>
		</clipPath>
	</defs>
	<use xlink:href="#path46" style="stroke:none;fill:#FFF5F0"/>
	<use xlink:href="#path46" style="fill:none;stroke:#FFF5F0;stroke-width:8.64" clip-path="url(#clipPath46)"/>
	<defs>
		<path id="path47" d="M962.28 2350.21 L962.28 2350.21 L1321.90 2350.21 L1321.90 2637.94 L962.28 2637.94 L962.28 2350.21 Z" stroke-linecap="round"/>
	</defs>
	<defs>
		<clipPath id="clipPath47">
			<use xlink:href="#path47"/>
		</clipPath>
	</defs>
	<use xlink:href="#path47" style="stroke:none;fill:#FEE0D2"/>
	<use xlink:href="#path47" style="fill:none;stroke:#FEE0D2;stroke-width:8.64" clip-path="url(#clipPath47)"/>
	<defs>
		<path id="path48" d="M1321.90 2350.21 L1321.90 2350.21 L1681.52 2350.21 L1681.52 2637.94 L1321.90 2637.94 L1321.90 2350.21 Z" stroke-linecap="round"/>
	</defs>
	<defs>
		<clipPath id="clipPath48">
			<use xlink:href="#path48"/>
		</clipPath>
	</defs>
	<use xlink:href="#path48" style="stroke:none;fill:#FCBBA1"/>
	<use xlink:href="#path48" style="fill:none;stroke:#FCBBA1;stroke-width:8.64" clip-path="url(#clipPath48)"/>
	<defs>
		<path id="path49" d="M1681.52 2350.21 L1681.52 2350.21 L2041.01 2350.21 L2041.01 2637.94 L1681.52 2637.94 L1681.52 2350.21 Z" stroke-linecap="round"/>
	</defs>
	<defs>
		<clipPath id="clipPath49">
			<use xlink:href="#path49"/>
		</clipPath>
	</defs>
	<use xlink:href="#path49" style="stroke:none;fill:#FC9272"/>
	<use xlink:href="#path49" style="fill:none;stroke:#FC9272;stroke-width:8.64" clip-path="url(#clipPath49)"/>
	<defs>
		<path id="path50" d="M2041.01 2350.21 L2041.01 2350.21 L2400.63 2350.21 L2400.63 2637.94 L2041.01 2637.94 L2041.01 2350.21 Z" stroke-linecap="round"/>
	</defs>
	<defs>
		<clipPath id="clipPath50">
			<use xlink:href="#path50"/>
		</clipPath>
	</defs>
	<use xlink:href="#path50" style="stroke:none;fill:#FB6A4A"/>
	<use xlink:href="#path50" style="fill:none;stroke:#FB6A4A;stroke-width:8.64" clip-path="url(#clipPath50)"/>
	<defs>
		<path id="path51" d="M2400.63 2350.21 L2400.63 2350.21 L2760.12 2350.21 L2760.12 2637.94 L2400.63 2637.94 L2400.63 2350.21 Z" stroke-linecap="round"/>
	</defs>
	<defs>
		<clipPath id="clipPath51">
			<use xlink:href="#path51"/>
		</clipPath>
	</defs>
	<use xlink:href="#path51" style="stroke:none;fill:#EF3B2C"/>
	<use xlink:href="#path51" style="fill:none;stroke:#EF3B2C;stroke-width:8.64" clip-path="url(#clipPath51)"/>
	<defs>
		<path id="path52" d="M2760.12 2350.21 L2760.12 2350.21 L3119.74 2350.21 L3119.74 2637.94 L2760.12 2637.94 L2760.12 2350.21 Z" stroke-linecap="round"/>
	</defs>
	<defs>
		<clipPath id="clipPath52">
			<use xlink:href="#path52"/>
		</clipPath>
	</defs>
	<use xlink:href="#path52" style="stroke:none;fill:#CB181D"/>
	<use xlink:href="#path52" style="fill:none;stroke:#CB181D;stroke-width:8.64" clip-path="url(#clipPath52)"/>
	<defs>
		<path id="path53" d="M3119.74 2350.21 L3119.74 2350.21 L3479.36 2350.21 L3479.36 2637.94 L3119.74 2637.94 L3119.74 2350.21 Z" stroke-linecap="round"/>
	</defs>
	<defs>
		<clipPath id="clipPath53">
			<use xlink:href="#path53"/>
		</clipPath>
	</defs>
	<use xlink:href="#path53" style="stroke:none;fill:#A50F15"/>
	<use xlink:href="#path53" style="fill:none;stroke:#A50F15;stroke-width:8.64" clip-path="url(#clipPath53)"/>
	<defs>
		<path id="path54" d="M3479.36 2350.21 L3479.36 2350.21 L3838.85 2350.21 L3838.85 2637.94 L3479.36 2637.94 L3479.36 2350.21 Z" stroke-linecap="round"/>
	</defs>
	<defs>
		<clipPath id="clipPath54">
			<use xlink:href="#path54"/>
		</clipPath>
	</defs>
	<use xlink:href="#path54" style="stroke:none;fill:#67000D"/>
	<use xlink:href="#path54" style="fill:none;stroke:#67000D;stroke-width:8.64" clip-path="url(#clipPath54)"/>
	<text x="519.50" y="474.35" style="font-family:'Helvetica';font-size:99.99px;fill:#000000" text-anchor="end">Blues</text>
	<text x="519.50" y="885.34" style="font-family:'Helvetica';font-size:99.99px;fill:#000000" text-anchor="end">Greens</text>
	<text x="519.50" y="1296.20" style="font-family:'Helvetica';font-size:99.99px;fill:#000000" text-anchor="end">Greys</text>
	<text x="519.50" y="1707.19" style="font-family:'Helvetica';font-size:99.99px;fill:#000000" text-anchor="end">Oranges</text>
	<text x="519.50" y="2118.05" style="font-family:'Helvetica';font-size:99.99px;fill:#000000" text-anchor="end">Purples</text>
	<text x="519.50" y="2529.04" style="font-family:'Helvetica';font-size:99.99px;fill:#000000" text-anchor="end">Reds</text>
	<text x="782.60" y="2791.16" style="font-family:'Helvetica';font-size:99.99px;fill:#000000" text-anchor="middle">1</text>
	<text x="1142.21" y="2791.16" style="font-family:'Helvetica';font-size:99.99px;fill:#000000" text-anchor="middle">2</text>
	<text x="1501.71" y="2791.16" style="font-family:'Helvetica';font-size:99.99px;fill:#000000" text-anchor="middle">3</text>
	<text x="1861.32" y="2791.16" style="font-family:'Helvetica';font-size:99.99px;fill:#000000" text-anchor="middle">4</text>
	<text x="2220.82" y="2791.16" style="font-family:'Helvetica';font-size:99.99px;fill:#000000" text-anchor="middle">5</text>
	<text x="2580.43" y="2791.16" style="font-family:'Helvetica';font-size:99.99px;fill:#000000" text-anchor="middle">6</text>
	<text x="2940.05" y="2791.16" style="font-family:'Helvetica';font-size:99.99px;fill:#000000" text-anchor="middle">7</text>
	<text x="3299.55" y="2791.16" style="font-family:'Helvetica';font-size:99.99px;fill:#000000" text-anchor="middle">8</text>
	<text x="3659.16" y="2791.16" style="font-family:'Helvetica';font-size:99.99px;fill:#000000" text-anchor="middle">9</text>
	<text x="2220.82" y="172.79" style="font-family:'Helvetica';font-size:139.96px;fill:#1E2D53" text-anchor="middle">ColorBrewer sequential (single hue)</text>
</svg>
